<svg xmlns="http://www.w3.org/2000/svg" xmlns:xlink="http://www.w3.org/1999/xlink" width="92.43" height="92.43" viewBox="0 0 92.43 92.43">
  <defs>
    <linearGradient id="linear-gradient" x1="0.309" y1="-0.286" x2="0.623" y2="1.006" gradientUnits="objectBoundingBox">
      <stop offset="0.48" stop-color="#b3eb06"/>
      <stop offset="0.66" stop-color="#28dc07"/>
    </linearGradient>
    <clipPath id="clip-path">
      <rect id="Rect치ngulo_39" data-name="Rect치ngulo 39" width="92.43" height="92.43" rx="17.36" transform="translate(47.71)" fill="none"/>
    </clipPath>
    <linearGradient id="linear-gradient-2" x1="0.14" y1="0.156" x2="0.569" y2="0.566" gradientUnits="objectBoundingBox">
      <stop offset="0"/>
      <stop offset="1" stop-color="#fff"/>
    </linearGradient>
  </defs>
  <g id="Capa_2" data-name="Capa 2" transform="translate(-47.71)">
    <g id="Capa_1" data-name="Capa 1">
      <rect id="Rect치ngulo_38" data-name="Rect치ngulo 38" width="92.43" height="92.43" rx="17.36" transform="translate(47.71)" fill="url(#linear-gradient)"/>
      <g id="Grupo_13" data-name="Grupo 13" clip-path="url(#clip-path)">
        <circle id="Elipse_15" data-name="Elipse 15" cx="95.26" cy="95.26" r="95.26" transform="translate(0 55.96)" opacity="0.21" fill="url(#linear-gradient-2)"/>
      </g>
      <path id="Trazado_158" data-name="Trazado 158" d="M50.11,36.15c0,.06-.33,1.75-1.1,2-.14,0-.32-.11-.34-.71s0-1.37,0-1.65,0-1.07-.62-1.2-1,.58-1,.58-.46-.45-.79-.29a7.07,7.07,0,0,0-1.08,1A1.18,1.18,0,0,0,44,35c-1-.11-1.36.92-1.58,1.45s-.77,2.76.83,3.54c1.07.34,1.92-1.44,2-2.18a6.411,6.411,0,0,1,0-1.17c.09-.18,1-1.35,1.16-1.15a2.66,2.66,0,0,1,.14,1.15,11.059,11.059,0,0,0,0,2.22c.13.73.59.57.68.28a9.5,9.5,0,0,0,.12-1.63,5.74,5.74,0,0,1,0-1.77c.18-.34.47-.8.6-.43s-.05,1.85.13,2.55.74,1.08,1.28.82,1-2.18,1-2.33S50.17,36.08,50.11,36.15Zm-5.86-.44c.16.14.62.48.21.84a.67.67,0,0,1-1.15-.33c-.07-.55.69-.74.94-.51Zm0,3.18c-.46.78-1.16.72-1.44-.19a2.68,2.68,0,0,1,.08-1.77,3.67,3.67,0,0,0,.51.31s-.35-.52-.3-.57.31.22.41.25.69.13.65.17-.46.14-.46.21.23,0,.29,0a4.57,4.57,0,0,1,.65-.18,3.22,3.22,0,0,1-.37,1.77Z" transform="translate(47.71)" fill="#fff"/>
      <path id="Trazado_159" data-name="Trazado 159" d="M59.59,28.33c-1.79-3.62-4.12-6-9.36-7.75s-12.47,1.2-15.08,4.78-3.76,6.73-3.34,11.37,3.51,5.23,4.5,5.08,3.37-.76,4.49-2.61a8.1,8.1,0,0,0,.93-5.11,3.76,3.76,0,0,0-3.37-3.41c-2-.07-3.6.45-4.28,2.75-.27,1,.32,3.3.7,3.07.15-.09.11-.35,0-.67a3.42,3.42,0,0,1,1-3.68,3.11,3.11,0,0,1,4.92,1.67,10,10,0,0,1-.14,4A5,5,0,0,1,37.08,41l.2-8.17a2.48,2.48,0,0,0-.35.13s-.18,1.52-.22,1.52-.09-1.51-.09-1.51-.28.06-.28.09-.3,5.41-.28,7.54c0,.4.12.81-.39.83S33.8,41,32.91,39a13.64,13.64,0,0,1,.64-10.31,14.33,14.33,0,0,1,15.25-7.9A14.65,14.65,0,0,1,60.3,31.18c.68,2.85.49,4.73-.1,5a.72.72,0,0,1-1.07-.77c0-.67.2-2-.34-2.34s-.89.33-1.22.36-.25-.27-.6-.22-.83.36-.91,1.55,0,2.58-.7,2.45a3.76,3.76,0,0,1-.07-1.39c.06-.44.48-2.36.25-2.59s-.55.19-.59.18-.37-.42-.58-.32-.37.27-.48.3a1.2,1.2,0,0,0-.58.45,4.48,4.48,0,0,0-.76,2.67c0,1.52.77,1.74,1.13,1.65s1.08-.87,1.13-.83a.66.66,0,0,0,.62.53c.53,0,1-.41,1.15-1.53s0-2.49.43-2.53.23,2.27.23,2.31v1c0,.07,0,.41.34.4s.38-.28.39-.48a11,11,0,0,0,.1-1.44A3.85,3.85,0,0,1,58,34c.18-.37.59-.43.59-.38s0,1.95.1,2.48.66.78,1.38.6.89-.53,1-1.37A12.073,12.073,0,0,0,59.59,28.33Zm-5,7.6c-.3,1.06-.61,1.7-1.1,1.67s-.31-1.69-.23-2.16.54-1.76,1.08-1.73.53,1.15.22,2.22Z" transform="translate(47.71)" fill="#fff"/>
      <path id="Trazado_160" data-name="Trazado 160" d="M55.42,29a2.61,2.61,0,0,0-3.35-1.79,4.7,4.7,0,0,0-3.69,3.14c-.36,1.06.19,2.48.6,2.26.21-.13-.13-.62-.17-.9A3.48,3.48,0,0,1,50.36,29c1.39-.92,3.41-1.25,4-.27s.25,2-.63,3.1a4.29,4.29,0,0,1-1.65,1.09V29.53a.71.71,0,0,0-.39.12s-.1,1.65-.25,1.47,0-1.31-.06-1.38-.23.11-.25.4S51,36.4,51,36.52a9.77,9.77,0,0,0,0,2.1c0,.05.86,0,.93-.34s.08-3.65.11-4.87a8.72,8.72,0,0,0,1.22-.52C53.83,32.55,55.91,31,55.42,29Z" transform="translate(47.71)" fill="#fff"/>
      <path id="Trazado_161" data-name="Trazado 161" d="M65.2,29.47a10.15,10.15,0,0,0-.42-3.11,1.28,1.28,0,0,0-2-.55A1.32,1.32,0,0,0,63,27.67C63.68,28.25,65.2,29.47,65.2,29.47Z" transform="translate(47.71)" fill="#fff"/>
      <path id="Trazado_162" data-name="Trazado 162" d="M65,23.4s-2.17-2.31-3.55-1.67c-.5.24-.63,1.91.79,2.25A7.64,7.64,0,0,0,65,23.4Z" transform="translate(47.71)" fill="#fff"/>
      <path id="Trazado_163" data-name="Trazado 163" d="M60.36,27.11s-1.7-2.44-.85-3.59c.32-.41,1.89-.21,1.92,1.16a7.3,7.3,0,0,1-1.07,2.43Z" transform="translate(47.71)" fill="#fff"/>
      <path id="Trazado_164" data-name="Trazado 164" d="M62.31,20.19s-2.6-1.8-3.82-.89c-.44.34-.22,2,1.24,2a7.62,7.62,0,0,0,2.58-1.11Z" transform="translate(47.71)" fill="#fff"/>
      <path id="Trazado_165" data-name="Trazado 165" d="M58.16,24.73s-1.94-2.12-1.26-3.32c.26-.44,1.78-.44,2,.87A6.91,6.91,0,0,1,58.16,24.73Z" transform="translate(47.71)" fill="#fff"/>
      <path id="Trazado_166" data-name="Trazado 166" d="M59,17.65s-2.82-1.44-3.9-.38c-.4.4,0,2,1.49,1.85A7.7,7.7,0,0,0,59,17.65Z" transform="translate(47.71)" fill="#fff"/>
      <path id="Trazado_167" data-name="Trazado 167" d="M55.66,22.71s-2.25-1.85-1.72-3.13a1.27,1.27,0,0,1,2.12.6A6.83,6.83,0,0,1,55.66,22.71Z" transform="translate(47.71)" fill="#fff"/>
      <path id="Trazado_168" data-name="Trazado 168" d="M55.3,15.66s-3-1-3.92.19c-.33.45.34,2,1.75,1.62C53.84,17.31,55.3,15.66,55.3,15.66Z" transform="translate(47.71)" fill="#fff"/>
      <path id="Trazado_169" data-name="Trazado 169" d="M52.75,21.14s-2.49-1.5-2.16-2.85a1.28,1.28,0,0,1,2.19.29A6.75,6.75,0,0,1,52.75,21.14Z" transform="translate(47.71)" fill="#fff"/>
      <path id="Trazado_170" data-name="Trazado 170" d="M63.86,37.27a.5.5,0,0,0-.6.38,16.83,16.83,0,1,1-5.19-16.19.5.5,0,0,0,.19.1,33.15,33.15,0,0,1,5.18,5.3.46.46,0,0,0,.39.21.49.49,0,0,0,.28-.09.48.48,0,0,0,.12-.67,34.45,34.45,0,0,0-5.51-5.63,17.82,17.82,0,1,0,5.52,17.19.5.5,0,0,0-.38-.6Z" transform="translate(47.71)" fill="#fff"/>
      <path id="Trazado_171" data-name="Trazado 171" d="M59.26,41c-.07-.62-.81-.89-1.42-.81a6.7,6.7,0,0,0-1.75.54c-.15.07-.37.19-.52.14s-.23-.22-.37-.3a1.16,1.16,0,0,0-.84-.13c-3.92.66-7.81,1.54-11.68,2.44a5.77,5.77,0,0,0-1,.21c-.31.12-.25.41-.43.57a3.77,3.77,0,0,1-1.75.39c-.67.06-1.59.33-1.81,1a1,1,0,0,0,.58,1.12A2.11,2.11,0,0,0,39.82,46a5.6,5.6,0,0,1,1.53-.57.35.35,0,0,1,.33.06c.12.09.21.35.32.44a1.961,1.961,0,0,0,1.06,0C47.25,45,51,44.3,55,43.43a3.41,3.41,0,0,0,.63-.24c.11-.06.22-.38.31-.47.33-.32.86-.14,1.32-.21a5.1,5.1,0,0,0,1.37-.39A1.17,1.17,0,0,0,59.26,41ZM41.49,44.94a.38.38,0,0,1-.21.1l-.61.18a1.31,1.31,0,0,0-.28.09l-.16.08a.75.75,0,0,1-.18.07,4.4,4.4,0,0,1-.86.24,1.72,1.72,0,0,1-.9-.07.182.182,0,0,1-.16-.17c0-.09.09-.15.17-.18a.51.51,0,0,0,.31-.28v-.16a.084.084,0,0,1,.13-.05.09.09,0,0,1,0,.07v.17h0c.09-.14.11-.33.22-.46h0v.42c.18-.16.25-.42.45-.56a1.94,1.94,0,0,1,.07.33c.13-.08.14-.27.25-.38l.1.24h.06a1.27,1.27,0,0,1,.13-.19s.08-.07.12-.06.08.08.1.13.05.11.1.1.07,0,.09-.08.06-.08.1-.07.07.12.13.11h0c.06-.06.23-.3.31-.29s.16.26.19.32a.35.35,0,0,1,.33.35Zm13.83-2.06a1.09,1.09,0,0,1-.33.19c-.53.13-1.48.37-2.19.49-2.54.43-4.95,1-7.48,1.58a12.24,12.24,0,0,1-2.62.42c-.19,0-.49.06-.62-.08a1.38,1.38,0,0,1-.18-.41c-.1-.35-.15-.68-.25-1,0-.14-.07-.45.08-.56s.19.16.22.29.11,1.11.24,1.11-.23-1.43.17-1.56c.09,0,.15.35.14.51s0,.47.15.46,0-.61,0-.88c0-.08.06-.21.15-.22s.19.12.2.2.05.53.2.58,0-.21,0-.34v-.28c0-.12,0-.28.14-.27s.21.2.22.34,0,.42.15.39.08-.32.08-.64A.52.52,0,0,1,44,43a1.261,1.261,0,0,1,.19.14,1.38,1.38,0,0,1,.12.34c0,.13,0,.31.18.33s0-.41-.05-.61.1-.42.28-.33.16.53.38.49c.22.13.1-.16,0-.38a.14.14,0,0,1,.08-.17.283.283,0,0,1,.22.15c.11.27,0,.67.3.6,0-.24-.1-.47-.11-.7,0-.06-.07-.12,0-.16a.29.29,0,0,1,.3,0c.07.07,0,.23.1.31s0-.06,0-.17,0-.3.11-.29.16.19.27.19.09-.22.18-.26.13.22.19.16a.953.953,0,0,0,.13-.29,1,1,0,0,1,.28.22.54.54,0,0,0,.11-.28c.06,0,.09.14.15.19s0-.18.09-.21.16.08.2.06.11-.14.19-.19.19.35.21.42,0-.31.08-.43c.1,0,.08.18.18.2a.3.3,0,0,0,.28-.08c.09-.08.08.16.12.15s.06-.35.1-.43.2.15.26.1,0-.21.12-.21.16.13.21.13a2.765,2.765,0,0,1,.53-.29c.05,0,0,.32.09.33s.2-.38.25-.38.08.39.16.41,0-.32.12-.4a.37.37,0,0,1,.39,0c.11.08.1.25.11.39s.13.3.26.25a2.84,2.84,0,0,1,0-.71c.07-.1.2.08.24.21s.12.27.23.2-.17-.51,0-.6.38-.07.39.19.11.54.26.54a4.851,4.851,0,0,0-.07-.55c0-.16-.07-.3.09-.29s.27,0,.29.12a2.25,2.25,0,0,1,.09.35.2.2,0,0,0,0,.11c.07.08.22,0,.24-.11a.59.59,0,0,0-.07-.31c0-.1-.11-.21,0-.28a.2.2,0,0,1,.29,0,1.12,1.12,0,0,1,.13.39c0,.13.11.15.16.19s0-.08,0-.18a1.789,1.789,0,0,0,0-.23.32.32,0,0,1,.08-.27c.1-.1.15,0,.26.11s.12.36.15.49.12.25.25.22-.3-.87-.19-.87c.35-.07.38.27.42.46a1.36,1.36,0,0,0,.25.56c.15.05.08-.24,0-.37a3.66,3.66,0,0,1-.13-.44c-.08-.32.09-.24.23-.2a.26.26,0,0,1,.16.18,4,4,0,0,1,.29,1.49A.31.31,0,0,1,55.32,42.88Zm3.26-1.26a.39.39,0,0,1-.14.08,4.71,4.71,0,0,1-1.07.38,4.191,4.191,0,0,1-.78.11,3.49,3.49,0,0,1-.72,0,.39.39,0,0,1-.15-.06.76.76,0,0,1-.06-.16c0-.14-.32-.64-.12-.71a1.75,1.75,0,0,1,.56,0,1.33,1.33,0,0,0,.4,0,.14.14,0,0,0,.08-.05.27.27,0,0,0,0-.09s.07-.09.1-.1h0l.2.07a.206.206,0,0,1,.23-.09h.41a.44.44,0,0,1,.2,0,.2.2,0,0,1,.16.1.25.25,0,0,0,.07-.2.78.78,0,0,1,.24.2c.07,0,.07-.13.14-.15s.06,0,.09,0a.22.22,0,0,1,.13.15s.08.1.08.13a1.77,1.77,0,0,1,0,.23A.36.36,0,0,1,58.58,41.62Z" transform="translate(47.71)" fill="#fff"/>
      <path id="Trazado_172" data-name="Trazado 172" d="M64.34,68.85H28.78a2.013,2.013,0,0,1-1.89-2.64l3-8.9a2,2,0,1,1,3.78,1.26l-2.1,6.28h32.8a2,2,0,0,1,0,4Z" transform="translate(47.71)" fill="#fff"/>
      <path id="Trazado_173" data-name="Trazado 173" d="M57.7,78.77a6.31,6.31,0,1,1,6.3-6.3,6.31,6.31,0,0,1-6.3,6.3Zm0-8.62A2.32,2.32,0,1,0,60,72.47a2.32,2.32,0,0,0-2.3-2.32Z" transform="translate(47.71)" fill="#fff"/>
      <path id="Trazado_174" data-name="Trazado 174" d="M35.34,78.77a6.31,6.31,0,1,1,6.3-6.3,6.31,6.31,0,0,1-6.3,6.3Zm0-8.62a2.32,2.32,0,1,0,2.32,2.32,2.32,2.32,0,0,0-2.32-2.32Z" transform="translate(47.71)" fill="#fff"/>
      <path id="Trazado_175" data-name="Trazado 175" d="M64.31,60H29.69a2.15,2.15,0,0,1-2.1-1.68L20.4,27l-8.81-4.09A2.154,2.154,0,1,1,13.4,19l9.77,4.53A2.16,2.16,0,0,1,24.36,25l7,30.69H62.7l7.09-24.34a2.15,2.15,0,1,1,4.13,1.2l-7.54,25.9A2.17,2.17,0,0,1,64.31,60Z" transform="translate(47.71)" fill="#fff"/>
    </g>
  </g>
</svg>
