<svg xmlns="http://www.w3.org/2000/svg" width="36.639" height="42.045" viewBox="0 0 36.639 42.045">
  <g id="Layer_4_copy" transform="translate(0.5 0.523)">
    <path id="Trazado_54" data-name="Trazado 54" d="M30.736,25.624,62.53,44.178a1.954,1.954,0,0,1,0,3.366L30.736,66.1a1.923,1.923,0,0,1-2.884-1.683V27.307A1.923,1.923,0,0,1,30.736,25.624Z" transform="translate(-27.852 -25.361)" fill="#ff9e00"/>
    <path id="Trazado_55" data-name="Trazado 55" d="M62.532,44.183,30.806,25.633a1.909,1.909,0,0,0-.588-.215L60.889,43.351a1.956,1.956,0,0,1,0,3.365L29.163,65.265a1.868,1.868,0,0,1-.885.25,1.9,1.9,0,0,0,2.528.581L62.532,47.548A1.956,1.956,0,0,0,62.532,44.183Z" transform="translate(-27.852 -25.361)" fill="#ff9e00"/>
    <path id="Trazado_56" data-name="Trazado 56" d="M30.736,25.624,62.53,44.178a1.954,1.954,0,0,1,0,3.366L30.736,66.1a1.923,1.923,0,0,1-2.884-1.683V27.307A1.923,1.923,0,0,1,30.736,25.624Z" transform="translate(-27.852 -25.361)" fill="none" stroke="#ff9e00" stroke-miterlimit="10" stroke-width="1"/>
  </g>
</svg>
