<svg id="apple-seeklogo.com" xmlns="http://www.w3.org/2000/svg" width="44.951" height="49.712" viewBox="0 0 44.951 49.712">
  <path id="Trazado_57" data-name="Trazado 57" d="M37.542,26.411c.078,7.523,7.329,10.027,7.409,10.059a26.054,26.054,0,0,1-3.82,7.07c-2.3,3.028-4.689,6.046-8.451,6.108-3.7.061-4.885-1.974-9.111-1.974s-5.545,1.911-9.045,2.035c-3.631.124-6.4-3.275-8.716-6.292-4.741-6.172-8.364-17.44-3.5-25.047A13.788,13.788,0,0,1,13.732,12.14c3.566-.061,6.931,2.16,9.111,2.16s6.268-2.672,10.568-2.279c1.8.067,6.853.655,10.1,4.931-.261.146-6.029,3.169-5.966,9.459M30.595,7.937A10.263,10.263,0,0,0,33.466,0a12.886,12.886,0,0,0-8.132,3.768c-1.786,1.86-3.351,4.837-2.928,7.69a10.7,10.7,0,0,0,8.189-3.52" transform="translate(0)" fill="#ff9e00"/>
</svg>
