<svg xmlns="http://www.w3.org/2000/svg" xmlns:xlink="http://www.w3.org/1999/xlink" width="544.924" height="141.82" viewBox="0 0 544.924 141.82">
  <defs>
    <linearGradient id="linear-gradient" x1="0.309" y1="-0.286" x2="0.623" y2="1.006" gradientUnits="objectBoundingBox">
      <stop offset="0.48" stop-color="#b3eb06"/>
      <stop offset="0.66" stop-color="#28dc07"/>
    </linearGradient>
    <clipPath id="clip-path">
      <rect id="Rect치ngulo_35" data-name="Rect치ngulo 35" width="92.43" height="92.43" rx="17.36" transform="translate(47.71 19.28)" fill="none"/>
    </clipPath>
    <linearGradient id="linear-gradient-2" x1="0.14" y1="0.156" x2="0.569" y2="0.566" gradientUnits="objectBoundingBox">
      <stop offset="0"/>
      <stop offset="1" stop-color="#fff"/>
    </linearGradient>
  </defs>
  <g id="Capa_2" data-name="Capa 2" transform="translate(-47.71 -0.01)">
    <g id="Capa_1" data-name="Capa 1">
      <path id="Trazado_110" data-name="Trazado 110" d="M129.3,8.09c11.32,0,22.13-1.18,27.79-1.2C185.64,6.82,195,17.74,195,44.53c.06,27.29-9.55,54-45.15,54.06-16.47,0-27.67-.56-27.69-12.38,0-4.28,1-18.11,2.3-34.21,2.69-33.34,2.43-36.73,2.67-42a2,2,0,0,1,2.17-1.91Zm42.86,39.26c0-14.21-3.2-21.12-15.4-21.09-1.76,0-4.65.26-8.67.53-.48,12.32-2.06,35.47-3.28,51.57a39,39,0,0,0,5.92.36C169.47,78.67,172.19,60.56,172.16,47.35Z" transform="translate(47.71)" fill="#fff"/>
      <path id="Trazado_111" data-name="Trazado 111" d="M189.41,67.13c0-20.25,8.92-40.24,37.72-40.24,21.13,0,29.56,10.81,29.56,29.43,0,15.84-6,42.25-37.6,42.25C196.07,98.57,189.41,84.61,189.41,67.13Zm21.37-1.38c0,11.06,3.65,16.09,10.19,16.09,11.82,0,14.34-17,14.34-24.77,0-8.3-2.89-13.46-10.31-13.46C212.29,43.61,210.78,58.58,210.78,65.75Z" transform="translate(47.71)" fill="#fff"/>
      <path id="Trazado_112" data-name="Trazado 112" d="M307.62,52.17c0-4.41-1.63-8.43-7.67-8.43-11.57,0-14.84,9.43-17.73,51.06-.13,2-.63,2.51-2.77,2.51h-4.53c-10.31,0-12.83-4.27-12.83-11.94,0-5.16,1.14-16.6,3.78-53.58.12-2,.25-2.89.63-3.27s.88-.38,2-.38h4.9c10.06,0,12.7,5,13.08,10.57,5.28-8.93,11.45-11.82,21.51-11.82,14.08,0,20.75,5.66,20.75,22.76,0,8.17-3.4,39.49-3.4,43.77,0,3.64-.5,3.89-3.39,3.89h-4c-10.56,0-12.95-4-12.95-11.06C305,79,307.62,60.46,307.62,52.17Z" transform="translate(47.71)" fill="#fff"/>
      <path id="Trazado_113" data-name="Trazado 113" d="M356,101.91c-10.62,0-14.72-4.39-14.72-12.6,0-4.81,1.27-22.64,2.83-40.76,2.83-33.55,2.83-36.52,3-45a2.07,2.07,0,0,1,2.12-2.12C359,1.43,373.44.01,381.79.01c24.34,0,34,12,34,32.27C415.7,54.35,404.37,75,377.06,75a35.43,35.43,0,0,1-10.34-1.28l-2,26.05c-.14,1.55-.56,2.12-2.26,2.12Zm14-80c-.28,7.93-1,20-1.84,32.27a33.5,33.5,0,0,0,7.92,1c13.17,0,15.58-14.29,15.58-21.51,0-8.07-3.12-12.46-12.74-12.46a75.748,75.748,0,0,0-8.92.73Z" transform="translate(47.71)" fill="#fff"/>
      <path id="Trazado_114" data-name="Trazado 114" d="M454.21,57.2c.12-1.77.25-2.9.25-4.66,0-5.41-1.51-8.8-7.8-8.8-7,0-8.17,4.15-9.68,10.19-.38,1.5-1.38,1.76-3.9,1.76-8.55,0-12.83-3-12.83-9.69,0-10.56,9.56-19.11,28.8-19.11,18.61,0,26.54,8,26.54,22.13,0,3.77-2.14,21.13-2.14,24.9,0,8.43,7.42,5.66,7.42,8.3,0,7.42-3.52,16.35-15.09,16.35-8,0-11.82-4.15-13.08-10.94-4,5.79-10.06,10.94-20.5,10.94C422.14,98.57,414,94,414,81.84,414,66.88,427.92,57.82,454.21,57.2ZM435.6,76.69c0,3.9,3,5.15,5.78,5.15,5.41,0,10.94-4.77,11.7-14.33C444.27,67.51,435.6,70,435.6,76.69Z" transform="translate(47.71)" fill="#fff"/>
      <path id="Trazado_115" data-name="Trazado 115" d="M523.89,53.11c-.12-4.4-1.87-8.37-7.9-8.21-11.57.32-14.58,9.84-16.33,51.53-.07,2-.56,2.53-2.7,2.59l-4.52.12c-10.31.29-12.94-3.92-13.15-11.59-.15-5.15.67-16.62,2.3-53.66.07-2,.17-2.9.54-3.28s.87-.4,2-.44L489,30c10.06-.28,12.84,4.68,13.37,10.2,5-9.07,11.11-12.13,21.17-12.41,14.08-.38,20.9,5.09,21.37,22.19.22,8.17-2.31,39.57-2.2,43.84.1,3.65-.39,3.91-3.28,4l-4,.11c-10.56.29-13.06-3.66-13.25-10.7C522,80,524.11,61.41,523.89,53.11Z" transform="translate(47.71)" fill="#fff"/>
      <text id="MARKET" transform="translate(171.23 133.83)" fill="#fff" font-size="30.29" font-family="SegoeUI-Bold, Segoe UI" font-weight="700" letter-spacing="1.948em"><tspan x="0" y="0">MARKET</tspan></text>
      <rect id="Rect치ngulo_34" data-name="Rect치ngulo 34" width="92.43" height="92.43" rx="17.36" transform="translate(47.71 19.28)" fill="url(#linear-gradient)"/>
      <g id="Grupo_11" data-name="Grupo 11" clip-path="url(#clip-path)">
        <circle id="Elipse_13" data-name="Elipse 13" cx="95.26" cy="95.26" r="95.26" transform="translate(0 75.24)" opacity="0.21" fill="url(#linear-gradient-2)"/>
      </g>
      <path id="Trazado_116" data-name="Trazado 116" d="M50.11,55.43c0,.06-.33,1.75-1.1,2-.14,0-.32-.11-.34-.71s0-1.38,0-1.66,0-1.06-.62-1.19-1,.57-1,.57-.46-.44-.79-.28a7.07,7.07,0,0,0-1.08,1A1.17,1.17,0,0,0,44,54.3c-1-.11-1.36.92-1.58,1.45s-.77,2.76.83,3.54c1.07.34,1.92-1.45,2-2.18a6.33,6.33,0,0,1,0-1.17c.09-.18,1-1.35,1.16-1.15a2.66,2.66,0,0,1,.14,1.15,11,11,0,0,0,0,2.22c.13.73.59.57.68.28a9.56,9.56,0,0,0,.12-1.63,5.74,5.74,0,0,1,0-1.77c.18-.34.47-.8.6-.43s-.05,1.85.13,2.54.74,1.08,1.28.83,1-2.18,1-2.33S50.17,55.36,50.11,55.43ZM44.25,55c.16.14.62.48.21.84a.67.67,0,0,1-1.15-.34C43.24,54.94,44,54.76,44.25,55Zm0,3.17c-.46.78-1.16.73-1.44-.18a2.66,2.66,0,0,1,.08-1.77,3.67,3.67,0,0,0,.51.31s-.35-.52-.3-.57.31.21.41.25.69.12.65.17-.46.14-.46.21.23,0,.29,0a6.591,6.591,0,0,1,.65-.19,3.22,3.22,0,0,1-.37,1.76Z" transform="translate(47.71)" fill="#fff"/>
      <path id="Trazado_117" data-name="Trazado 117" d="M59.59,47.61c-1.79-3.62-4.12-6-9.36-7.76s-12.47,1.21-15.08,4.79S31.39,51.37,31.81,56s3.51,5.23,4.5,5.07,3.37-.75,4.49-2.6a8.13,8.13,0,0,0,.93-5.12A3.75,3.75,0,0,0,38.36,50c-2-.07-3.6.45-4.28,2.75-.27,1,.32,3.3.7,3.07.15-.09.11-.35,0-.68a3.41,3.41,0,0,1,1-3.67,3.11,3.11,0,0,1,4.92,1.66,10,10,0,0,1-.14,4,5,5,0,0,1-3.45,3.17l.2-8.16a2.48,2.48,0,0,0-.35.13s-.18,1.51-.22,1.52-.09-1.51-.09-1.51-.28.06-.28.09-.3,5.41-.28,7.54c0,.39.12.81-.39.83s-1.87-.44-2.76-2.37A13.64,13.64,0,0,1,33.55,48,14.35,14.35,0,0,1,48.8,40.06a14.68,14.68,0,0,1,11.5,10.4c.68,2.85.49,4.72-.1,5a.73.73,0,0,1-1.07-.78c0-.67.2-2-.34-2.33s-.89.33-1.22.36-.25-.27-.6-.22-.83.35-.91,1.55,0,2.58-.7,2.45a3.76,3.76,0,0,1-.07-1.39c.06-.44.48-2.36.25-2.59s-.55.19-.59.18-.37-.43-.58-.32-.37.27-.48.3a1.14,1.14,0,0,0-.58.45,4.47,4.47,0,0,0-.76,2.66c0,1.53.77,1.75,1.13,1.66s1.08-.87,1.13-.83a.66.66,0,0,0,.62.53c.53,0,1-.41,1.15-1.53s0-2.49.43-2.54.23,2.28.23,2.32v1c0,.07,0,.41.34.4s.38-.28.39-.48a11,11,0,0,0,.1-1.44,3.85,3.85,0,0,1,0-1.63.64.64,0,0,1,.59-.39,24.731,24.731,0,0,0,.1,2.49c.1.49.66.78,1.38.6s.89-.53,1-1.37A12.275,12.275,0,0,0,59.59,47.61Zm-5,7.6c-.3,1.06-.61,1.7-1.1,1.67s-.31-1.7-.23-2.17S53.77,53,54.31,53s.56,1.14.25,2.21Z" transform="translate(47.71)" fill="#fff"/>
      <path id="Trazado_118" data-name="Trazado 118" d="M55.42,48.27a2.61,2.61,0,0,0-3.35-1.78,4.7,4.7,0,0,0-3.69,3.14c-.36,1.06.19,2.48.6,2.25.21-.12-.13-.61-.17-.89a3.47,3.47,0,0,1,1.55-2.76c1.39-.92,3.41-1.25,4-.28s.25,2-.63,3.11a4.29,4.29,0,0,1-1.65,1.09V48.76a.7.7,0,0,0-.39.11c0,.06-.1,1.66-.25,1.48s0-1.31-.06-1.38-.23.11-.25.4S51,55.68,51,55.8a9.76,9.76,0,0,0,0,2.1c0,.05.86,0,.93-.34s.08-3.65.11-4.87a8.14,8.14,0,0,0,1.22-.53C53.83,51.83,55.91,50.3,55.42,48.27Z" transform="translate(47.71)" fill="#fff"/>
      <path id="Trazado_119" data-name="Trazado 119" d="M65.2,48.74a10.1,10.1,0,0,0-.42-3.1,1.28,1.28,0,0,0-2-.55A1.32,1.32,0,0,0,63,47C63.68,47.53,65.2,48.74,65.2,48.74Z" transform="translate(47.71)" fill="#fff"/>
      <path id="Trazado_120" data-name="Trazado 120" d="M65,42.68S62.81,40.37,61.43,41c-.5.24-.63,1.91.79,2.25A7.87,7.87,0,0,0,65,42.68Z" transform="translate(47.71)" fill="#fff"/>
      <path id="Trazado_121" data-name="Trazado 121" d="M60.36,46.39s-1.7-2.45-.85-3.59c.32-.41,1.89-.21,1.92,1.16A7.4,7.4,0,0,1,60.36,46.39Z" transform="translate(47.71)" fill="#fff"/>
      <path id="Trazado_122" data-name="Trazado 122" d="M62.31,39.47s-2.6-1.81-3.82-.89c-.44.34-.22,2,1.24,2a7.62,7.62,0,0,0,2.58-1.11Z" transform="translate(47.71)" fill="#fff"/>
      <path id="Trazado_123" data-name="Trazado 123" d="M58.16,44s-1.94-2.12-1.26-3.33a1.25,1.25,0,0,1,2,.88A6.91,6.91,0,0,1,58.16,44Z" transform="translate(47.71)" fill="#fff"/>
      <path id="Trazado_124" data-name="Trazado 124" d="M59,36.93s-2.82-1.45-3.9-.38c-.4.4,0,2,1.49,1.85A7.7,7.7,0,0,0,59,36.93Z" transform="translate(47.71)" fill="#fff"/>
      <path id="Trazado_125" data-name="Trazado 125" d="M55.66,42s-2.25-1.84-1.72-3.13a1.28,1.28,0,0,1,2.12.6,6.79,6.79,0,0,1-.4,2.53Z" transform="translate(47.71)" fill="#fff"/>
      <path id="Trazado_126" data-name="Trazado 126" d="M55.3,34.94s-3-1-3.92.19c-.33.45.34,2,1.75,1.61C53.84,36.59,55.3,34.94,55.3,34.94Z" transform="translate(47.71)" fill="#fff"/>
      <path id="Trazado_127" data-name="Trazado 127" d="M52.75,40.42s-2.49-1.5-2.16-2.85a1.28,1.28,0,0,1,2.19.29,6.75,6.75,0,0,1-.03,2.56Z" transform="translate(47.71)" fill="#fff"/>
      <path id="Trazado_128" data-name="Trazado 128" d="M63.86,56.55a.5.5,0,0,0-.6.38,16.83,16.83,0,1,1-5.19-16.19.5.5,0,0,0,.19.1,33.15,33.15,0,0,1,5.18,5.3.48.48,0,0,0,.39.21.49.49,0,0,0,.28-.09.48.48,0,0,0,.12-.67A34.45,34.45,0,0,0,58.72,40a17.82,17.82,0,1,0,5.52,17.19.5.5,0,0,0-.38-.64Z" transform="translate(47.71)" fill="#fff"/>
      <path id="Trazado_129" data-name="Trazado 129" d="M59.26,60.29c-.07-.61-.81-.88-1.42-.8a6.34,6.34,0,0,0-1.75.54c-.15.07-.37.19-.52.14s-.23-.22-.37-.3a1.11,1.11,0,0,0-.84-.13c-3.92.66-7.81,1.54-11.68,2.44a5.75,5.75,0,0,0-1,.2c-.31.13-.25.41-.43.57a3.77,3.77,0,0,1-1.75.4c-.67.06-1.59.33-1.81,1a1,1,0,0,0,.58,1.11,2,2,0,0,0,1.57-.16,5.91,5.91,0,0,1,1.53-.56.33.33,0,0,1,.33.06c.12.09.21.34.32.44a1.867,1.867,0,0,0,1.06,0c4.19-.94,7.9-1.66,11.9-2.53a3.41,3.41,0,0,0,.63-.24c.11-.07.22-.38.31-.47.33-.33.86-.15,1.32-.21a5.1,5.1,0,0,0,1.37-.39A1.18,1.18,0,0,0,59.26,60.29ZM41.49,64.22a.46.46,0,0,1-.21.1l-.61.18a1.31,1.31,0,0,0-.28.09.8.8,0,0,1-.16.08.75.75,0,0,1-.18.07,4.4,4.4,0,0,1-.86.24,1.72,1.72,0,0,1-.9-.07.191.191,0,0,1-.16-.17c0-.08.09-.15.17-.18a.51.51,0,0,0,.31-.28v-.16a.084.084,0,0,1,.13-.05.09.09,0,0,1,0,.07v.17h0a3.25,3.25,0,0,1,.22-.46h0v.43c.18-.16.25-.43.45-.56a1.76,1.76,0,0,1,.07.33c.13-.09.14-.27.25-.38l.1.24h.06a1.27,1.27,0,0,1,.13-.19.17.17,0,0,1,.12-.07c.06,0,.08.08.1.14s.05.1.1.1.07,0,.09-.08.06-.08.1-.07.07.12.13.11h0c.06,0,.23-.29.31-.28s.16.26.19.32a.35.35,0,0,1,.33.33Zm13.83-2.06a1.35,1.35,0,0,1-.33.19c-.53.13-1.48.37-2.19.49-2.54.43-4.95,1-7.48,1.58a12.22,12.22,0,0,1-2.62.41c-.19,0-.49.07-.62-.07a1.5,1.5,0,0,1-.18-.41c-.1-.35-.15-.68-.25-1,0-.14-.07-.45.08-.56s.19.16.22.29.11,1.11.24,1.11-.23-1.44.17-1.56c.09,0,.15.35.14.5s0,.47.15.47,0-.61,0-.88c0-.08.06-.22.15-.22a.244.244,0,0,1,.2.2c.01.09.05.53.2.57s0-.2,0-.33v-.28c0-.12,0-.29.14-.28s.21.2.22.35,0,.42.15.39.08-.32.08-.64a.52.52,0,0,1,.09-.2.807.807,0,0,1,.19.14,1.31,1.31,0,0,1,.12.33c0,.13,0,.32.18.34s0-.41-.05-.61.1-.42.28-.33.16.53.38.49c.22.13.1-.16,0-.38a.14.14,0,0,1,.08-.17.283.283,0,0,1,.22.15c.11.26,0,.67.3.6,0-.24-.1-.47-.11-.71,0-.05-.07-.11,0-.15a.29.29,0,0,1,.3,0c.07.07,0,.23.1.31s0-.06,0-.18,0-.29.11-.29.16.19.27.2.09-.22.18-.26.13.22.19.16a.953.953,0,0,0,.13-.29,1,1,0,0,1,.28.22.54.54,0,0,0,.11-.28c.06,0,.09.14.15.19s0-.18.09-.21.16.08.2.05a1.734,1.734,0,0,1,.19-.18c.08-.05.19.34.21.42s0-.32.08-.43.08.18.18.2a.287.287,0,0,0,.28-.09c.09-.09.08.17.12.16s.06-.35.1-.43.2.15.26.1,0-.21.12-.21.16.12.21.13.25-.21.53-.29c.05,0,0,.32.09.33s.2-.38.25-.38.08.39.16.41,0-.32.12-.4a.35.35,0,0,1,.39,0c.11.08.1.25.11.38s.13.31.26.26a2.84,2.84,0,0,1,0-.71c.07-.1.2.08.24.21s.12.27.23.2-.17-.51,0-.6.38-.07.39.19.11.54.26.54a4.59,4.59,0,0,0-.07-.55c0-.16-.07-.3.09-.29s.27,0,.29.12a2.249,2.249,0,0,1,.09.35.2.2,0,0,0,0,.11c.07.08.22,0,.24-.11a.59.59,0,0,0-.07-.31c0-.1-.11-.21,0-.28a.2.2,0,0,1,.29,0,1.12,1.12,0,0,1,.13.39c0,.13.11.15.16.19s0-.09,0-.18a1.789,1.789,0,0,0,0-.23.33.33,0,0,1,.08-.28c.1-.09.15,0,.26.12a1.117,1.117,0,0,1,.15.49c.03.13.12.25.25.22s-.3-.87-.19-.87c.35-.07.38.27.42.46a1.42,1.42,0,0,0,.25.56c.15.05.08-.24,0-.37a3.661,3.661,0,0,1-.13-.44c-.08-.33.09-.24.23-.2a.26.26,0,0,1,.16.18,3.94,3.94,0,0,1,.29,1.48.32.32,0,0,1,.04.19Zm3.26-1.26a.39.39,0,0,1-.14.08,4.71,4.71,0,0,1-1.07.38,4.19,4.19,0,0,1-.78.11,3.49,3.49,0,0,1-.72,0,.39.39,0,0,1-.15-.06,1,1,0,0,1-.06-.16c0-.14-.32-.64-.12-.71a2.1,2.1,0,0,1,.56,0,1.33,1.33,0,0,0,.4,0,.14.14,0,0,0,.08-.05.27.27,0,0,0,0-.09s.07-.09.1-.1h0l.2.07a.2.2,0,0,1,.06-.13.14.14,0,0,1,.11,0h.61a.24.24,0,0,1,.16.11.25.25,0,0,0,.07-.2.78.78,0,0,1,.24.2c.07,0,.07-.13.14-.15s.06,0,.09,0a.22.22,0,0,1,.13.15s.08.09.08.13a1.7,1.7,0,0,1,0,.22.39.39,0,0,1,.01.2Z" transform="translate(47.71)" fill="#fff"/>
      <path id="Trazado_130" data-name="Trazado 130" d="M64.34,88.13H28.78a1.993,1.993,0,0,1-1.89-2.63l3-8.9a2,2,0,0,1,3.78,1.27l-2.1,6.27h32.8a2,2,0,0,1,0,4Z" transform="translate(47.71)" fill="#fff"/>
      <path id="Trazado_131" data-name="Trazado 131" d="M57.7,98.05a6.31,6.31,0,1,1,6.3-6.3,6.31,6.31,0,0,1-6.3,6.3Zm0-8.62A2.32,2.32,0,1,0,60,91.75a2.32,2.32,0,0,0-2.3-2.32Z" transform="translate(47.71)" fill="#fff"/>
      <path id="Trazado_132" data-name="Trazado 132" d="M35.34,98.05a6.31,6.31,0,1,1,6.3-6.3,6.31,6.31,0,0,1-6.3,6.3Zm0-8.62a2.32,2.32,0,1,0,2.32,2.32,2.32,2.32,0,0,0-2.32-2.32Z" transform="translate(47.71)" fill="#fff"/>
      <path id="Trazado_133" data-name="Trazado 133" d="M64.31,79.28H29.69a2.14,2.14,0,0,1-2.1-1.67L20.4,46.28l-8.81-4.09a2.15,2.15,0,1,1,1.81-3.9l9.77,4.53a2.16,2.16,0,0,1,1.19,1.47L31.4,75H62.7l7.09-24.35a2.152,2.152,0,0,1,4.13,1.21L66.38,77.73A2.15,2.15,0,0,1,64.31,79.28Z" transform="translate(47.71)" fill="#fff"/>
    </g>
  </g>
</svg>
