<svg xmlns="http://www.w3.org/2000/svg" width="240" height="230" viewBox="0 0 240 230">
  <path id="magic-solid" d="M105,43.126l7.5-14.375,15-7.188-15-7.188L105,0,97.5,14.375l-15,7.188,15,7.188ZM37.5,71.876,50,47.919,75,35.938,50,23.957,37.5,0,25,23.957,0,35.938,25,47.919Zm165,57.5L190,153.335l-25,11.981L190,177.3l12.5,23.957L215,177.3l25-11.981-25-11.981Zm33.1-87.047L195.83,4.214a15.453,15.453,0,0,0-21.211,0L4.4,167.346a13.951,13.951,0,0,0,0,20.328l39.77,38.117a15.465,15.465,0,0,0,21.211,0L235.6,62.654a13.946,13.946,0,0,0,0-20.323ZM168.492,91.4,144.628,68.53l40.594-38.9L209.086,52.5Z" fill="#28dc07"/>
</svg>
