<svg xmlns="http://www.w3.org/2000/svg" width="127.638" height="63.819" viewBox="0 0 127.638 63.819">
  <g id="Grupo_12" data-name="Grupo 12" transform="translate(-1116 -1122)">
    <path id="Trazado_61" data-name="Trazado 61" d="M340.513,190.527a60.423,60.423,0,0,1-120.845,0Z" transform="translate(899.728 931.473)" fill="#ff8900"/>
    <path id="Trazado_62" data-name="Trazado 62" d="M241.835,201.253c0,1.58-.56,2.86-1.251,2.86s-1.251-1.281-1.251-2.86a4.661,4.661,0,0,1,1.251-2.86,4.661,4.661,0,0,1,1.251,2.86Z" transform="translate(899.728 931.473)" fill="#3f3d56"/>
    <path id="Trazado_63" data-name="Trazado 63" d="M305.118,211.264c0,1.58-.56,2.86-1.251,2.86s-1.251-1.281-1.251-2.86a4.661,4.661,0,0,1,1.251-2.86,4.661,4.661,0,0,1,1.251,2.86Z" transform="translate(899.728 931.473)" fill="#3f3d56"/>
    <path id="Trazado_64" data-name="Trazado 64" d="M258.639,205.544c0,1.58-.56,2.86-1.251,2.86s-1.251-1.281-1.251-2.86a4.662,4.662,0,0,1,1.251-2.86A4.662,4.662,0,0,1,258.639,205.544Z" transform="translate(899.728 931.473)" fill="#3f3d56"/>
    <path id="Trazado_65" data-name="Trazado 65" d="M283.666,228.068c0,1.58-.56,2.86-1.251,2.86s-1.251-1.281-1.251-2.86a4.661,4.661,0,0,1,1.251-2.86A4.662,4.662,0,0,1,283.666,228.068Z" transform="translate(899.728 931.473)" fill="#3f3d56"/>
    <path id="Trazado_66" data-name="Trazado 66" d="M256.851,225.208c0,1.58-.56,2.86-1.251,2.86s-1.251-1.281-1.251-2.86a4.662,4.662,0,0,1,1.251-2.86A4.662,4.662,0,0,1,256.851,225.208Z" transform="translate(899.728 931.473)" fill="#3f3d56"/>
    <path id="Trazado_67" data-name="Trazado 67" d="M319.419,198.393c0,1.58-.56,2.86-1.251,2.86s-1.251-1.281-1.251-2.86a4.662,4.662,0,0,1,1.251-2.86,4.661,4.661,0,0,1,1.251,2.86Z" transform="translate(899.728 931.473)" fill="#3f3d56"/>
    <path id="Trazado_68" data-name="Trazado 68" d="M296.537,233.788c0,1.58-.56,2.86-1.251,2.86s-1.251-1.281-1.251-2.86a4.662,4.662,0,0,1,1.251-2.86A4.662,4.662,0,0,1,296.537,233.788Z" transform="translate(899.728 931.473)" fill="#3f3d56"/>
    <path id="Trazado_69" data-name="Trazado 69" d="M280.091,254.346a63.891,63.891,0,0,1-63.819-63.819h6.793a57.026,57.026,0,1,0,114.052,0h6.793a63.891,63.891,0,0,1-63.819,63.819Z" transform="translate(899.728 931.473)" fill="#3f3d56"/>
  </g>
</svg>
