<svg xmlns="http://www.w3.org/2000/svg" width="121.638" height="113.151" viewBox="0 0 121.638 113.151">
  <g id="Grupo_13" data-name="Grupo 13" transform="translate(-1118.999 -1247.882)">
    <path id="Trazado_58" data-name="Trazado 58" d="M340.909,333.454c.039-9.376-7.949-17.045-17.325-17.045h-87c-9.228,0-17.2,7.542-17.309,16.77a16.936,16.936,0,0,0,6.57,13.611,3.788,3.788,0,0,1,1.5,3.468,16.852,16.852,0,0,0-.151,2.256v60.18A16.868,16.868,0,0,0,244.06,429.56h71.495a16.868,16.868,0,0,0,16.868-16.868V352.513a16.964,16.964,0,0,0-.116-1.978,3.659,3.659,0,0,1,1.54-3.376A16.946,16.946,0,0,0,340.909,333.454Z" transform="translate(899.728 931.473)" fill="#3f3d56"/>
    <path id="Trazado_59" data-name="Trazado 59" d="M337.142,331.8a13.5,13.5,0,0,0-13.5-11.717H236.556a13.528,13.528,0,0,0-13.3,10.478,13.317,13.317,0,0,0,6.365,14.342,3.663,3.663,0,0,1,1.714,4.147,13.06,13.06,0,0,0-.464,3.462v60.174a13.2,13.2,0,0,0,10.748,12.967,13.355,13.355,0,0,0,2.446.227h71.495a13.047,13.047,0,0,0,3.57-.492,13.191,13.191,0,0,0,9.618-12.7V352.51a13.136,13.136,0,0,0-.408-3.249,3.77,3.77,0,0,1-.113-.9,3.668,3.668,0,0,1,1.946-3.236l.006-.006A13.29,13.29,0,0,0,337.142,331.8Z" transform="translate(899.728 931.473)" fill="#ff8900"/>
    <path id="Trazado_60" data-name="Trazado 60" d="M328.746,358.275v-5.658h-9.618V320.086H313.47v32.531H283.2V320.086h-5.658v32.531H247.277V320.086h-5.658v32.531H230.87v5.658h10.749v16.973H230.87v5.658h10.749v16.973H230.87v5.658h10.749v22.121a13.358,13.358,0,0,0,2.444.226h3.213V403.536h30.268v22.347H283.2V403.536h30.268v22.347h2.088a13.047,13.047,0,0,0,3.57-.492V403.536h9.618v-5.658h-9.618V380.906h9.618v-5.658h-9.618V358.275Zm-81.469,0h30.268v16.973H247.277Zm0,39.6V380.906h30.268v16.973Zm66.194,0H283.2V380.906h30.268Zm0-22.63H283.2V358.275h30.268Z" transform="translate(899.728 931.473)" opacity="0.2"/>
  </g>
</svg>
