<svg xmlns="http://www.w3.org/2000/svg" width="240" height="229.999" viewBox="0 0 240 229.999">
  <path id="palette-solid" d="M95.774,2.227C49.18,10.942,11.632,46.835,2.444,91.353-14.9,175.358,64.18,237.981,123.759,229.131c19.313-2.875,28.782-24.528,19.922-41.194-10.828-20.4,4.641-44.2,28.548-44.2h37.36c16.782,0,30.376-13.3,30.423-29.334C239.778,43.6,172.558-12.1,95.774,2.227ZM45.008,143.733c-8.3,0-15-6.424-15-14.375s6.7-14.375,15-14.375,15,6.424,15,14.375S53.3,143.733,45.008,143.733Zm15-57.5c-8.3,0-15-6.424-15-14.375s6.7-14.375,15-14.375,15,6.424,15,14.375-6.7,14.374-15,14.374Zm60-28.75c-8.3,0-15-6.424-15-14.375s6.7-14.375,15-14.375,15,6.424,15,14.375-6.7,14.374-15,14.374Zm60,28.75c-8.3,0-15-6.424-15-14.375s6.7-14.375,15-14.375,15,6.424,15,14.375-6.7,14.374-15,14.374Z" transform="translate(-0.012 0.034)" fill="#28dc07"/>
</svg>
