<svg xmlns="http://www.w3.org/2000/svg" xmlns:xlink="http://www.w3.org/1999/xlink" width="240" height="230" viewBox="0 0 240 230">
  <defs>
    <linearGradient id="linear-gradient" x1="0.5" x2="0.5" y2="1" gradientUnits="objectBoundingBox">
      <stop offset="0" stop-color="#ffa200"/>
      <stop offset="1" stop-color="#ff7000"/>
    </linearGradient>
  </defs>
  <path id="palette-solid" d="M95.774,2.227C49.18,10.942,11.632,46.835,2.444,91.353-14.9,175.358,64.18,237.981,123.759,229.131c19.313-2.875,28.782-24.528,19.922-41.194-10.828-20.395,4.641-44.2,28.548-44.2h37.36c16.782,0,30.376-13.3,30.423-29.334C239.778,43.6,172.558-12.1,95.774,2.227ZM45.008,143.733c-8.3,0-15-6.424-15-14.375s6.7-14.375,15-14.375,15,6.424,15,14.375S53.3,143.733,45.008,143.733Zm15-57.5c-8.3,0-15-6.424-15-14.375s6.7-14.375,15-14.375,15,6.424,15,14.375S68.305,86.232,60.008,86.232Zm60-28.75c-8.3,0-15-6.424-15-14.375s6.7-14.375,15-14.375,15,6.424,15,14.375S128.306,57.482,120.009,57.482Zm60,28.75c-8.3,0-15-6.424-15-14.375s6.7-14.375,15-14.375,15,6.424,15,14.375S188.308,86.232,180.011,86.232Z" transform="translate(-0.012 0.035)" fill="url(#linear-gradient)"/>
</svg>
