<svg xmlns="http://www.w3.org/2000/svg" xmlns:xlink="http://www.w3.org/1999/xlink" width="377.889" height="742.778" viewBox="0 0 377.889 742.778">
  <defs>
    <filter id="Trazado_16" x="0" y="0" width="377.889" height="742.778" filterUnits="userSpaceOnUse">
      <feOffset dx="6" dy="6" input="SourceAlpha"/>
      <feGaussianBlur stdDeviation="2.5" result="blur"/>
      <feFlood flood-opacity="0.161"/>
      <feComposite operator="in" in2="blur"/>
      <feComposite in="SourceGraphic"/>
    </filter>
    <linearGradient id="linear-gradient" x1="0.5" x2="0.5" y2="1" gradientUnits="objectBoundingBox">
      <stop offset="0" stop-color="#265c8b"/>
      <stop offset="0.462" stop-color="#265c8b"/>
      <stop offset="1" stop-color="#373868"/>
    </linearGradient>
    <linearGradient id="linear-gradient-2" x1="0.309" y1="-0.286" x2="0.623" y2="1.006" gradientUnits="objectBoundingBox">
      <stop offset="0.48" stop-color="#b3eb06"/>
      <stop offset="0.66" stop-color="#28dc07"/>
    </linearGradient>
    <clipPath id="clip-path">
      <rect id="Rect치ngulo_39" data-name="Rect치ngulo 39" width="93.43" height="98.43" rx="17.36" fill="none"/>
    </clipPath>
    <linearGradient id="linear-gradient-3" x1="0.14" y1="0.156" x2="0.569" y2="0.566" gradientUnits="objectBoundingBox">
      <stop offset="0"/>
      <stop offset="1" stop-color="#fff"/>
    </linearGradient>
  </defs>
  <g id="Grupo_20" data-name="Grupo 20" transform="translate(-777.5 -173.5)">
    <g id="Grupo_9" data-name="Grupo 9" transform="translate(-337 20)">
      <g transform="matrix(1, 0, 0, 1, 1114.5, 153.5)" filter="url(#Trazado_16)">
        <path id="Trazado_16-2" data-name="Trazado 16" d="M676,252.139h-4V142.593a63.4,63.4,0,0,0-63.4-63.4H376.513a63.4,63.4,0,0,0-63.4,63.4V743.568a63.4,63.4,0,0,0,63.4,63.4H608.6a63.4,63.4,0,0,0,63.4-63.4V330.115h4Z" transform="translate(-311.61 -77.69)" fill="#1e1e1e"/>
      </g>
      <path id="Trazado_17" data-name="Trazado 17" d="M611.157,95.687H580.862a22.495,22.495,0,0,1-20.827,30.991H427.076a22.495,22.495,0,0,1-20.827-30.991h-28.3a47.348,47.348,0,0,0-47.348,47.348V743.127a47.348,47.348,0,0,0,47.348,47.348h233.2A47.348,47.348,0,0,0,658.5,743.127V143.034a47.348,47.348,0,0,0-47.348-47.348Z" transform="translate(802.395 75.314)" fill="url(#linear-gradient)"/>
    </g>
    <g id="Grupo_19" data-name="Grupo 19" transform="translate(0 37)">
      <g id="Grupo_18" data-name="Grupo 18" transform="translate(1.84 26.12)">
        <path id="Trazado_158" data-name="Trazado 158" d="M126.081,7.675c6.216,0,12.153-.772,15.261-.785,15.678-.046,20.818,7.1,20.818,24.628.033,17.856-5.244,35.332-24.794,35.372-9.044,0-15.195-.366-15.206-8.1,0-2.8.549-11.849,1.263-22.384,1.477-21.815,1.334-24.033,1.466-27.481A1.42,1.42,0,0,1,125.261,8,.991.991,0,0,1,126.081,7.675Zm23.536,25.688c0-9.3-1.757-13.819-8.457-13.8-.967,0-2.554.17-4.761.347-.264,8.061-1.131,23.208-1.8,33.743a18.027,18.027,0,0,0,3.251.236C148.14,53.856,149.634,42.006,149.617,33.363Z" transform="translate(708 474.99)" fill="#fff"/>
        <path id="Trazado_159" data-name="Trazado 159" d="M189.41,54.959c0-14.125,5.3-28.069,22.426-28.069,12.562,0,17.574,7.54,17.574,20.529,0,11.049-3.567,29.471-22.354,29.471C193.37,76.89,189.41,67.152,189.41,54.959ZM202.115,54c0,7.715,2.17,11.224,6.058,11.224,7.027,0,8.526-11.858,8.526-17.278,0-5.79-1.718-9.389-6.13-9.389C203.013,38.553,202.115,49,202.115,54Z" transform="matrix(0.999, -0.035, 0.035, 0.999, 680.558, 473.945)" fill="#fff"/>
        <path id="Trazado_160" data-name="Trazado 160" d="M289.415,44.839c0-3.131-.978-5.986-4.6-5.986-6.944,0-8.906,6.7-10.641,36.254-.078,1.42-.378,1.782-1.662,1.782H269.79c-6.188,0-7.7-3.032-7.7-8.478,0-3.664.684-11.786,2.269-38.043.072-1.42.15-2.052.378-2.322s.528-.27,1.2-.27h2.941c6.038,0,7.622,3.55,7.85,7.5,3.169-6.341,6.872-8.393,12.909-8.393,8.45,0,12.453,4.019,12.453,16.16,0,5.8-2.04,28.039-2.04,31.078,0,2.584-.3,2.762-2.035,2.762h-2.4c-6.338,0-7.772-2.84-7.772-7.853C287.842,63.889,289.415,50.726,289.415,44.839Z" transform="translate(652 464.99)" fill="#fff"/>
        <path id="Trazado_161" data-name="Trazado 161" d="M349.182,60.01c-5.7,0-7.9-2.585-7.9-7.419,0-2.832.682-13.331,1.519-24,1.519-19.755,1.519-21.5,1.611-26.5a1.284,1.284,0,0,1,.325-.892,1.062,1.062,0,0,1,.813-.357c5.245,0,13-.836,17.48-.836,13.067,0,18.253,7.066,18.253,19-.048,13-6.131,25.154-20.792,25.154a17.44,17.44,0,0,1-5.551-.754L353.864,58.75c-.075.913-.3,1.248-1.213,1.248ZM356.7,12.9c-.15,4.669-.537,11.776-.988,19a16.487,16.487,0,0,0,4.252.589c7.07,0,8.364-8.414,8.364-12.665,0-4.752-1.675-7.337-6.839-7.337a37.157,37.157,0,0,0-4.789.43Z" transform="translate(625 480.87)" fill="#fff"/>
        <path id="Trazado_162" data-name="Trazado 162" d="M438.053,48.033c.072-1.235.15-2.023.15-3.251,0-3.774-.9-6.138-4.666-6.138-4.187,0-4.887,2.895-5.79,7.108-.227,1.046-.826,1.228-2.333,1.228-5.115,0-7.675-2.093-7.675-6.759,0-7.366,5.719-13.33,17.227-13.33,11.132,0,15.876,5.58,15.876,15.437,0,2.63-1.28,14.739-1.28,17.369,0,5.88,4.439,3.948,4.439,5.79,0,5.176-2.106,11.4-9.026,11.4-4.785,0-7.07-2.895-7.824-7.631-2.393,4.039-6.018,7.631-12.263,7.631C418.869,76.89,414,73.7,414,65.22,414,54.785,422.327,48.465,438.053,48.033Zm-11.132,13.6a3.239,3.239,0,0,0,3.457,3.592c3.236,0,6.544-3.327,7-10C432.107,55.224,426.921,56.961,426.921,61.628Z" transform="translate(593 464.99)" fill="#fff"/>
        <path id="Trazado_163" data-name="Trazado 163" d="M506.457,45.52c-.073-3.082-1.139-5.863-4.813-5.751-7.049.224-8.883,6.892-9.95,36.094-.043,1.4-.341,1.772-1.645,1.814l-2.754.084c-6.282.2-7.884-2.746-8.012-8.118-.091-3.607.408-11.642,1.4-37.586.043-1.4.1-2.031.329-2.3s.53-.28,1.219-.308l2.967-.119c6.129-.2,7.823,3.278,8.146,7.145,3.046-6.353,6.769-8.5,12.9-8.693,8.579-.266,12.734,3.565,13.02,15.543.134,5.723-1.407,27.717-1.34,30.708.061,2.557-.238,2.739-2,2.8l-2.437.077c-6.434.2-7.957-2.564-8.073-7.495C505.306,64.355,506.591,51.334,506.457,45.52Z" transform="translate(568 464.282)" fill="#fff"/>
      </g>
      <text id="MARKET" transform="translate(836 598)" fill="#fff" font-size="18" font-family="SegoeUI-Bold, Segoe UI" font-weight="700" letter-spacing="1.948em"><tspan x="0" y="0">MARKET</tspan></text>
      <g id="Capa_2" data-name="Capa 2" transform="translate(866.29 388)">
        <g id="Capa_1" data-name="Capa 1" transform="translate(47.71)">
          <rect id="Rect치ngulo_38" data-name="Rect치ngulo 38" width="93.43" height="98.43" rx="17.36" fill="url(#linear-gradient-2)"/>
          <g id="Grupo_13" data-name="Grupo 13" clip-path="url(#clip-path)">
            <ellipse id="Elipse_15" data-name="Elipse 15" cx="96.291" cy="101.444" rx="96.291" ry="101.444" transform="translate(-48.226 59.593)" opacity="0.21" fill="url(#linear-gradient-3)"/>
          </g>
          <path id="Trazado_158-2" data-name="Trazado 158" d="M50.11,36.15c0,.06-.33,1.75-1.1,2-.14,0-.32-.11-.34-.71s0-1.37,0-1.65,0-1.07-.62-1.2-1,.58-1,.58-.46-.45-.79-.29a7.07,7.07,0,0,0-1.08,1A1.18,1.18,0,0,0,44,35c-1-.11-1.36.92-1.58,1.45s-.77,2.76.83,3.54c1.07.34,1.92-1.44,2-2.18a6.411,6.411,0,0,1,0-1.17c.09-.18,1-1.35,1.16-1.15a2.66,2.66,0,0,1,.14,1.15,11.059,11.059,0,0,0,0,2.22c.13.73.59.57.68.28a9.5,9.5,0,0,0,.12-1.63,5.74,5.74,0,0,1,0-1.77c.18-.34.47-.8.6-.43s-.05,1.85.13,2.55.74,1.08,1.28.82,1-2.18,1-2.33S50.17,36.08,50.11,36.15Zm-5.86-.44c.16.14.62.48.21.84a.67.67,0,0,1-1.15-.33c-.07-.55.69-.74.94-.51Zm0,3.18c-.46.78-1.16.72-1.44-.19a2.68,2.68,0,0,1,.08-1.77,3.67,3.67,0,0,0,.51.31s-.35-.52-.3-.57.31.22.41.25.69.13.65.17-.46.14-.46.21.23,0,.29,0a4.57,4.57,0,0,1,.65-.18,3.22,3.22,0,0,1-.37,1.77Z" transform="translate(0.5 2.385)" fill="#fff"/>
          <path id="Trazado_159-2" data-name="Trazado 159" d="M59.59,28.33c-1.79-3.62-4.12-6-9.36-7.75s-12.47,1.2-15.08,4.78-3.76,6.73-3.34,11.37,3.51,5.23,4.5,5.08,3.37-.76,4.49-2.61a8.1,8.1,0,0,0,.93-5.11,3.76,3.76,0,0,0-3.37-3.41c-2-.07-3.6.45-4.28,2.75-.27,1,.32,3.3.7,3.07.15-.09.11-.35,0-.67a3.42,3.42,0,0,1,1-3.68,3.11,3.11,0,0,1,4.92,1.67,10,10,0,0,1-.14,4A5,5,0,0,1,37.08,41l.2-8.17a2.48,2.48,0,0,0-.35.13s-.18,1.52-.22,1.52-.09-1.51-.09-1.51-.28.06-.28.09-.3,5.41-.28,7.54c0,.4.12.81-.39.83S33.8,41,32.91,39a13.64,13.64,0,0,1,.64-10.31,14.33,14.33,0,0,1,15.25-7.9A14.65,14.65,0,0,1,60.3,31.18c.68,2.85.49,4.73-.1,5a.72.72,0,0,1-1.07-.77c0-.67.2-2-.34-2.34s-.89.33-1.22.36-.25-.27-.6-.22-.83.36-.91,1.55,0,2.58-.7,2.45a3.76,3.76,0,0,1-.07-1.39c.06-.44.48-2.36.25-2.59s-.55.19-.59.18-.37-.42-.58-.32-.37.27-.48.3a1.2,1.2,0,0,0-.58.45,4.48,4.48,0,0,0-.76,2.67c0,1.52.77,1.74,1.13,1.65s1.08-.87,1.13-.83a.66.66,0,0,0,.62.53c.53,0,1-.41,1.15-1.53s0-2.49.43-2.53.23,2.27.23,2.31v1c0,.07,0,.41.34.4s.38-.28.39-.48a11,11,0,0,0,.1-1.44A3.85,3.85,0,0,1,58,34c.18-.37.59-.43.59-.38s0,1.95.1,2.48.66.78,1.38.6.89-.53,1-1.37a12.073,12.073,0,0,0-1.48-7Zm-5,7.6c-.3,1.06-.61,1.7-1.1,1.67s-.31-1.69-.23-2.16.54-1.76,1.08-1.73.53,1.15.22,2.22Z" transform="translate(0.503 1.703)" fill="#fff"/>
          <path id="Trazado_160-2" data-name="Trazado 160" d="M55.42,29a2.61,2.61,0,0,0-3.35-1.79,4.7,4.7,0,0,0-3.69,3.14c-.36,1.06.19,2.48.6,2.26.21-.13-.13-.62-.17-.9A3.48,3.48,0,0,1,50.36,29c1.39-.92,3.41-1.25,4-.27s.25,2-.63,3.1a4.29,4.29,0,0,1-1.65,1.09V29.53a.71.71,0,0,0-.39.12s-.1,1.65-.25,1.47,0-1.31-.06-1.38-.23.11-.25.4S51,36.4,51,36.52a9.77,9.77,0,0,0,0,2.1c0,.05.86,0,.93-.34s.08-3.65.11-4.87a8.72,8.72,0,0,0,1.22-.52C53.83,32.55,55.91,31,55.42,29Z" transform="translate(0.566 2.009)" fill="#fff"/>
          <path id="Trazado_161-2" data-name="Trazado 161" d="M65.2,29.47a10.15,10.15,0,0,0-.42-3.11,1.28,1.28,0,0,0-2-.55A1.32,1.32,0,0,0,63,27.67C63.68,28.25,65.2,29.47,65.2,29.47Z" transform="translate(0.697 1.731)" fill="#fff"/>
          <path id="Trazado_162-2" data-name="Trazado 162" d="M65,23.4s-2.17-2.31-3.55-1.67c-.5.24-.63,1.91.79,2.25A7.64,7.64,0,0,0,65,23.4Z" transform="translate(0.69 1.44)" fill="#fff"/>
          <path id="Trazado_163-2" data-name="Trazado 163" d="M60.36,27.11s-1.7-2.44-.85-3.59c.32-.41,1.89-.21,1.92,1.16a7.3,7.3,0,0,1-1.07,2.43Z" transform="translate(0.657 1.579)" fill="#fff"/>
          <path id="Trazado_164" data-name="Trazado 164" d="M62.31,20.19s-2.6-1.8-3.82-.89c-.44.34-.22,2,1.24,2a7.62,7.62,0,0,0,2.58-1.11Z" transform="translate(0.659 1.267)" fill="#fff"/>
          <path id="Trazado_165" data-name="Trazado 165" d="M58.16,24.73s-1.94-2.12-1.26-3.32c.26-.44,1.78-.44,2,.87A6.91,6.91,0,0,1,58.16,24.73Z" transform="translate(0.629 1.428)" fill="#fff"/>
          <path id="Trazado_166" data-name="Trazado 166" d="M59,17.65s-2.82-1.44-3.9-.38c-.4.4,0,2,1.49,1.85A7.7,7.7,0,0,0,59,17.65Z" transform="translate(0.622 1.123)" fill="#fff"/>
          <path id="Trazado_167" data-name="Trazado 167" d="M55.66,22.71s-2.25-1.85-1.72-3.13a1.27,1.27,0,0,1,2.12.6A6.83,6.83,0,0,1,55.66,22.71Z" transform="translate(0.597 1.296)" fill="#fff"/>
          <path id="Trazado_168" data-name="Trazado 168" d="M55.3,15.66s-3-1-3.92.19c-.33.45.34,2,1.75,1.62C53.84,17.31,55.3,15.66,55.3,15.66Z" transform="translate(0.58)" fill="#fff"/>
          <path id="Trazado_169" data-name="Trazado 169" d="M52.75,21.14s-2.49-1.5-2.16-2.85a1.28,1.28,0,0,1,2.19.29A6.75,6.75,0,0,1,52.75,21.14Z" transform="translate(0.561 1.199)" fill="#fff"/>
          <path id="Trazado_170" data-name="Trazado 170" d="M63.86,37.27a.5.5,0,0,0-.6.38,16.83,16.83,0,1,1-5.19-16.19.5.5,0,0,0,.19.1,33.15,33.15,0,0,1,5.18,5.3.46.46,0,0,0,.39.21.49.49,0,0,0,.28-.09.48.48,0,0,0,.12-.67,34.45,34.45,0,0,0-5.51-5.63,17.82,17.82,0,1,0,5.52,17.19.5.5,0,0,0-.38-.6Z" transform="translate(0.508 1.707)" fill="#fff"/>
          <path id="Trazado_171" data-name="Trazado 171" d="M59.26,41c-.07-.62-.81-.89-1.42-.81a6.7,6.7,0,0,0-1.75.54c-.15.07-.37.19-.52.14s-.23-.22-.37-.3a1.16,1.16,0,0,0-.84-.13c-3.92.66-7.81,1.54-11.68,2.44a5.77,5.77,0,0,0-1,.21c-.31.12-.25.41-.43.57a3.77,3.77,0,0,1-1.75.39c-.67.06-1.59.33-1.81,1a1,1,0,0,0,.58,1.12A2.11,2.11,0,0,0,39.82,46a5.6,5.6,0,0,1,1.53-.57.35.35,0,0,1,.33.06c.12.09.21.35.32.44a1.961,1.961,0,0,0,1.06,0C47.25,45,51,44.3,55,43.43a3.41,3.41,0,0,0,.63-.24c.11-.06.22-.38.31-.47.33-.32.86-.14,1.32-.21a5.1,5.1,0,0,0,1.37-.39A1.17,1.17,0,0,0,59.26,41ZM41.49,44.94a.38.38,0,0,1-.21.1l-.61.18a1.31,1.31,0,0,0-.28.09l-.16.08a.75.75,0,0,1-.18.07,4.4,4.4,0,0,1-.86.24,1.72,1.72,0,0,1-.9-.07.182.182,0,0,1-.16-.17c0-.09.09-.15.17-.18a.51.51,0,0,0,.31-.28v-.16a.084.084,0,0,1,.13-.05.09.09,0,0,1,0,.07v.17h0c.09-.14.11-.33.22-.46h0v.42c.18-.16.25-.42.45-.56a1.94,1.94,0,0,1,.07.33c.13-.08.14-.27.25-.38l.1.24h.06a1.27,1.27,0,0,1,.13-.19s.08-.07.12-.06.08.08.1.13.05.11.1.1.07,0,.09-.08.06-.08.1-.07.07.12.13.11h0c.06-.06.23-.3.31-.29s.16.26.19.32a.35.35,0,0,1,.33.35Zm13.83-2.06a1.09,1.09,0,0,1-.33.19c-.53.13-1.48.37-2.19.49-2.54.43-4.95,1-7.48,1.58a12.24,12.24,0,0,1-2.62.42c-.19,0-.49.06-.62-.08a1.38,1.38,0,0,1-.18-.41c-.1-.35-.15-.68-.25-1,0-.14-.07-.45.08-.56s.19.16.22.29.11,1.11.24,1.11-.23-1.43.17-1.56c.09,0,.15.35.14.51s0,.47.15.46,0-.61,0-.88c0-.08.06-.21.15-.22s.19.12.2.2.05.53.2.58,0-.21,0-.34v-.28c0-.12,0-.28.14-.27s.21.2.22.34,0,.42.15.39.08-.32.08-.64A.52.52,0,0,1,44,43a1.261,1.261,0,0,1,.19.14,1.38,1.38,0,0,1,.12.34c0,.13,0,.31.18.33s0-.41-.05-.61.1-.42.28-.33.16.53.38.49c.22.13.1-.16,0-.38a.14.14,0,0,1,.08-.17.283.283,0,0,1,.22.15c.11.27,0,.67.3.6,0-.24-.1-.47-.11-.7,0-.06-.07-.12,0-.16a.29.29,0,0,1,.3,0c.07.07,0,.23.1.31s0-.06,0-.17,0-.3.11-.29.16.19.27.19.09-.22.18-.26.13.22.19.16a.953.953,0,0,0,.13-.29,1,1,0,0,1,.28.22.54.54,0,0,0,.11-.28c.06,0,.09.14.15.19s0-.18.09-.21.16.08.2.06.11-.14.19-.19.19.35.21.42,0-.31.08-.43c.1,0,.08.18.18.2a.3.3,0,0,0,.28-.08c.09-.08.08.16.12.15s.06-.35.1-.43.2.15.26.1,0-.21.12-.21.16.13.21.13a2.765,2.765,0,0,1,.53-.29c.05,0,0,.32.09.33s.2-.38.25-.38.08.39.16.41,0-.32.12-.4a.37.37,0,0,1,.39,0c.11.08.1.25.11.39s.13.3.26.25a2.84,2.84,0,0,1,0-.71c.07-.1.2.08.24.21s.12.27.23.2-.17-.51,0-.6.38-.07.39.19.11.54.26.54a4.851,4.851,0,0,0-.07-.55c0-.16-.07-.3.09-.29s.27,0,.29.12a2.25,2.25,0,0,1,.09.35.2.2,0,0,0,0,.11c.07.08.22,0,.24-.11a.59.59,0,0,0-.07-.31c0-.1-.11-.21,0-.28a.2.2,0,0,1,.29,0,1.12,1.12,0,0,1,.13.39c0,.13.11.15.16.19s0-.08,0-.18a1.789,1.789,0,0,0,0-.23.32.32,0,0,1,.08-.27c.1-.1.15,0,.26.11s.12.36.15.49.12.25.25.22-.3-.87-.19-.87c.35-.07.38.27.42.46a1.36,1.36,0,0,0,.25.56c.15.05.08-.24,0-.37a3.66,3.66,0,0,1-.13-.44c-.08-.32.09-.24.23-.2a.26.26,0,0,1,.16.18,4,4,0,0,1,.29,1.49A.31.31,0,0,1,55.32,42.88Zm3.26-1.26a.39.39,0,0,1-.14.08,4.71,4.71,0,0,1-1.07.38,4.191,4.191,0,0,1-.78.11,3.49,3.49,0,0,1-.72,0,.39.39,0,0,1-.15-.06.76.76,0,0,1-.06-.16c0-.14-.32-.64-.12-.71a1.75,1.75,0,0,1,.56,0,1.33,1.33,0,0,0,.4,0,.14.14,0,0,0,.08-.05.27.27,0,0,0,0-.09s.07-.09.1-.1h0l.2.07a.206.206,0,0,1,.23-.09h.41a.44.44,0,0,1,.2,0,.2.2,0,0,1,.16.1.25.25,0,0,0,.07-.2.78.78,0,0,1,.24.2c.07,0,.07-.13.14-.15s.06,0,.09,0a.22.22,0,0,1,.13.15s.08.1.08.13a1.77,1.77,0,0,1,0,.23A.36.36,0,0,1,58.58,41.62Z" transform="translate(0.532 2.791)" fill="#fff"/>
          <path id="Trazado_172" data-name="Trazado 172" d="M64.34,68.85H28.78a2.013,2.013,0,0,1-1.89-2.64l3-8.9a2,2,0,1,1,3.78,1.26l-2.1,6.28h32.8a2,2,0,0,1,0,4Z" transform="translate(0.507 4.217)" fill="#fff"/>
          <path id="Trazado_173" data-name="Trazado 173" d="M57.7,78.77a6.31,6.31,0,1,1,6.3-6.3,6.31,6.31,0,0,1-6.3,6.3Zm0-8.62A2.32,2.32,0,1,0,60,72.47a2.32,2.32,0,0,0-2.3-2.32Z" transform="translate(0.644 6)" fill="#fff"/>
          <path id="Trazado_174" data-name="Trazado 174" d="M35.34,78.77a6.31,6.31,0,1,1,6.3-6.3,6.31,6.31,0,0,1-6.3,6.3Zm0-8.62a2.32,2.32,0,1,0,2.32,2.32A2.32,2.32,0,0,0,35.34,70.15Z" transform="translate(0.364 6)" fill="#fff"/>
          <path id="Trazado_175" data-name="Trazado 175" d="M64.31,60H29.69a2.15,2.15,0,0,1-2.1-1.68L20.4,27l-8.81-4.09A2.154,2.154,0,1,1,13.4,19l9.77,4.53A2.16,2.16,0,0,1,24.36,25l7,30.69H62.7l7.09-24.34a2.15,2.15,0,1,1,4.13,1.2l-7.54,25.9A2.17,2.17,0,0,1,64.31,60Z" transform="translate(0 2.202)" fill="#fff"/>
        </g>
      </g>
    </g>
  </g>
</svg>
