<svg xmlns="http://www.w3.org/2000/svg" xmlns:xlink="http://www.w3.org/1999/xlink" width="240" height="230" viewBox="0 0 240 230">
  <defs>
    <linearGradient id="linear-gradient" x1="0.5" x2="0.5" y2="1" gradientUnits="objectBoundingBox">
      <stop offset="0" stop-color="#265c8b"/>
      <stop offset="1" stop-color="#228b0d"/>
    </linearGradient>
  </defs>
  <path id="smile-regular" d="M120,8C53.71,8,0,59.472,0,123S53.71,238,120,238s120-51.472,120-115S186.29,8,120,8Zm0,207.742c-53.371,0-96.774-41.6-96.774-92.742S66.629,30.258,120,30.258,216.774,71.853,216.774,123,173.371,215.742,120,215.742ZM81.29,115.581c8.565,0,15.484-6.631,15.484-14.839S89.855,85.9,81.29,85.9s-15.484,6.631-15.484,14.839S72.726,115.581,81.29,115.581Zm77.419,0c8.565,0,15.484-6.631,15.484-14.839S167.274,85.9,158.71,85.9s-15.484,6.631-15.484,14.839,6.919,14.842,15.484,14.842Zm1.936,33.665a54.346,54.346,0,0,1-81.29,0A12,12,0,0,0,63,147.808a10.841,10.841,0,0,0-1.5,15.673,78.319,78.319,0,0,0,117,0,10.8,10.8,0,0,0-1.5-15.673,12,12,0,0,0-16.355,1.438Z" transform="translate(0 -8)" fill="url(#linear-gradient)"/>
</svg>
